<svg id="Layer_1" data-name="Layer 1" xmlns="http://www.w3.org/2000/svg" viewBox="0 0 489.41 193.62"><defs><style>.cls-1{fill:#4a4f54;}.cls-2{fill:#3a8dde;}.cls-3{fill:#f5a800;}</style></defs><title>sm.logo.800x200px_180509 (1)</title><path class="cls-1" d="M290.13,155.92h4.61l14.7,22,14.72-22h4.62V196.3h-4.56V163.56l-14.71,21.65h-.23l-14.71-21.57V196.3h-4.44Z" transform="translate(-156.67 -3.36)"/><path class="cls-1" d="M367.81,155.61h4.26l18.4,40.69h-4.9l-4.73-10.68h-22l-4.79,10.68H349.4Zm11.25,25.85-9.18-20.54-9.23,20.54Z" transform="translate(-156.67 -3.36)"/><path class="cls-1" d="M406.94,176.22v-.12c0-11.43,8.54-20.91,20.43-20.91,7.33,0,11.72,2.63,15.76,6.42L440,165c-3.38-3.23-7.19-5.54-12.67-5.54-8.93,0-15.65,7.26-15.65,16.57v.11c0,9.35,6.77,16.67,15.65,16.67,5.53,0,9.17-2.13,13-5.83l3,2.94c-4.2,4.28-8.82,7.09-16.15,7.09C415.55,197,406.94,187.81,406.94,176.22Z" transform="translate(-156.67 -3.36)"/><path class="cls-1" d="M464,155.92h4.57v17.93h23.29V155.92h4.56V196.3h-4.56V178.11H468.54V196.3H464Z" transform="translate(-156.67 -3.36)"/><path class="cls-1" d="M520.89,155.92h4.57V196.3h-4.57Z" transform="translate(-156.67 -3.36)"/><path class="cls-1" d="M550,155.92h4.28l25.44,32.36V155.92h4.44V196.3h-3.64L554.4,163.17V196.3H550Z" transform="translate(-156.67 -3.36)"/><path class="cls-1" d="M608.19,155.92h29.19v4.15H612.76v13.78h22V178h-22v14.1h24.91v4.18H608.19Z" transform="translate(-156.67 -3.36)"/><path class="cls-2" d="M156.67,118.93l9.44-14.34c10.14,7.52,20.81,11.37,30.24,11.37,9.09,0,14.34-3.85,14.34-10v-.34c0-7.16-9.79-9.62-20.63-13-13.64-3.84-28.85-9.43-28.85-27.1v-.34c0-17.5,14.51-28.15,32.87-28.15A64,64,0,0,1,228,47.59l-8.39,15c-8.92-5.42-18.37-8.73-26.05-8.73-8.22,0-12.94,3.84-12.94,9.09v.33c0,6.83,10,9.63,20.81,13.13,13.46,4.2,28.67,10.32,28.67,26.92v.36c0,19.42-15,29-34.27,29A64.9,64.9,0,0,1,156.67,118.93Z" transform="translate(-156.67 -3.36)"/><path class="cls-2" d="M251.78,38.67H273V54.05c6.81-9.61,16.42-17.28,31.46-17.28,21.69,0,42.85,17.12,42.85,47.89V85c0,30.6-21,47.92-42.85,47.92-15.39,0-25-7.72-31.46-16.27V197H251.78Zm74,46.34v-.35c0-17.83-12.07-29.55-26.4-29.55S272.42,67,272.42,84.66V85c0,17.65,12.59,29.55,26.92,29.55C313.86,114.56,325.74,103.19,325.74,85Z" transform="translate(-156.67 -3.36)"/><path class="cls-2" d="M365.79,3.36H387V131H365.79Z" transform="translate(-156.67 -3.36)"/><path class="cls-2" d="M414.93,4.4h22.72V24.51H414.93Zm.86,34.27H437V131H415.79Z" transform="translate(-156.67 -3.36)"/><path class="cls-2" d="M459.52,85.36V85c0-26.23,20.26-48.24,48.08-48.24,17.3,0,28.14,6.46,36.88,15.89L531.2,66.83c-6.46-6.83-13.3-11.55-23.8-11.55-15.38,0-26.73,13.3-26.73,29.38V85c0,16.43,11.35,29.55,27.63,29.55,10,0,17.29-4.55,23.95-11.37L545,115.78c-9.08,10.14-19.77,17.29-37.77,17.29C479.78,133.07,459.52,111.58,459.52,85.36Z" transform="translate(-156.67 -3.36)"/><path class="cls-2" d="M556.73,85.19v-.36c0-26.41,18.71-48.06,45.1-48.06,29.39,0,44.25,23.06,44.25,49.64,0,1.92-.19,3.84-.36,6H577.88c2.29,15,12.93,23.41,26.58,23.41,10.32,0,17.65-3.84,25-11l12.4,11c-8.74,10.49-20.79,17.29-37.76,17.29C577.37,133.07,556.73,113.68,556.73,85.19Zm68.35-6.82c-1.4-13.64-9.43-24.32-23.42-24.32-12.94,0-22,10-23.94,24.32Z" transform="translate(-156.67 -3.36)"/><rect class="cls-3" x="8.3" y="142.29" width="51.74" height="12.85"/><rect class="cls-3" x="44.79" y="160.87" width="13.73" height="13.72"/><rect class="cls-3" x="27.36" y="160.87" width="13.73" height="13.72"/><rect class="cls-3" x="9.81" y="160.87" width="13.72" height="13.72"/><rect class="cls-3" x="36.08" y="179.9" width="13.72" height="13.72"/><rect class="cls-3" x="18.52" y="179.9" width="13.72" height="13.72"/></svg>